PathFileType	4	(X/Y/Z)	C:\Users\WrightLab\Desktop\Jo\P3_3.trc
DataRate	CameraRate	NumFrames	NumMarkers	Units	OrigDataRate	OrigDataStartFrame	OrigNumFrames
100.00	100.00	       6	19	mm	100.00	274	       729
Frame#	Time	Headset_Front			Headset_Back			Headset_Left			Headset_Right			Left_Shoulder			Right_Shoulder			Sternum			C7			Left Elbow			Right Elbow			Left Wrist			Right Wrist			Left ASIS			Right ASIS			S2			Left Knee			Right Knee			Left Ankle			Right Ankle			
		X1	Y1	Z1	X2	Y2	Z2	X3	Y3	Z3	X4	Y4	Z4	X5	Y5	Z5	X6	Y6	Z6	X7	Y7	Z7	X8	Y8	Z8	X9	Y9	Z9	X10	Y10	Z10	X11	Y11	Z11	X12	Y12	Z12	X13	Y13	Z13	X14	Y14	Z14	X15	Y15	Z15	X16	Y16	Z16	X17	Y17	Z17	X18	Y18	Z18	X19	Y19	Z19	

274	2.730	-395.21817	1459.78870	302.71976	-355.34821	1628.11682	553.77600	-477.90573	1556.96008	471.09399	-274.64447	1514.55200	384.84775	-507.96320	1344.70105	622.43488	-191.96307	1339.56177	466.79053	-414.01013	1221.56152	439.01239	-319.99606	1394.36707	590.41650	-595.14465	1018.54584	631.45917	-107.20213	1009.89380	375.42572	-652.63422	857.65656	510.52487	-154.76741	916.52130	167.39481	-484.86356	854.93860	546.50543				-260.64117	950.85376	628.57855	-368.82718	446.40048	650.89691	-362.25949	457.23050	339.70551	-264.93799	135.01947	709.88623	-436.62460	137.71317	289.44037	
275	2.740	-398.00983	1457.36304	298.49527	-360.15668	1627.29553	547.91266	-482.83139	1555.55444	464.24872	-279.10178	1512.74963	378.32498	-512.87183	1342.67542	615.48792	-196.57765	1337.50769	460.01678	-419.11014	1220.14734	432.03012	-325.60092	1392.66394	584.04376	-599.47144	1016.64087	623.74939	-111.83379	1007.84332	368.27301	-655.90570	854.72363	502.83804	-156.92593	914.62390	160.09067	-490.55182	853.23700	538.67535				-266.27982	949.08997	621.20898	-373.21719	445.80475	646.60040	-367.29504	455.70023	336.08255	-265.30365	136.72331	710.15094	-448.46863	136.72066	281.68790	
276	2.750	-402.29660	1455.69788	292.36807	-364.88388	1624.84631	540.30444	-487.27222	1553.77319	457.34692	-283.45016	1510.88513	372.01202	-518.12054	1341.01355	608.17712	-201.04228	1335.58826	453.01489	-424.15506	1218.95154	424.33887	-330.24106	1390.63611	577.12524	-603.62079	1013.92944	615.74207	-118.42422	1005.24786	361.29526	-659.92474	852.18567	495.04230	-159.24269	912.93158	152.96765	-496.30957	851.68854	530.17505	-306.50589	861.53748	367.03403	-272.12445	947.16003	613.81934	-376.45157	444.62625	641.58551	-372.94162	454.18552	331.44357	-266.61847	136.55544	708.27435	-457.44510	136.75652	275.61951	
277	2.760	-406.64221	1454.34875	284.19171	-369.94333	1624.02075	534.03174	-491.76535	1552.41638	450.21072	-288.08673	1509.07080	365.74396	-523.51855	1339.28027	601.11865	-206.03690	1333.66003	446.16913	-429.00699	1217.37476	417.07022	-335.52722	1388.99390	570.31647	-608.67517	1012.24854	608.52454	-123.01076	1004.07080	354.55096	-663.06567	849.41205	488.14993	-161.35878	911.04596	145.38829	-501.85919	849.63983	522.90265				-278.28891	945.91437	605.70410	-380.86948	444.42682	636.82831	-378.43140	451.82144	326.32632	-267.61462	136.70984	707.57129	-465.93237	134.77458	271.45593	
278	2.770	-412.47778	1453.79858	274.51941	-374.52948	1622.71155	527.12439	-495.52017	1550.73193	442.32059	-292.37161	1507.72034	356.82785	-528.65515	1337.52710	593.75208	-211.01120	1331.85278	439.80096	-433.91257	1215.82043	409.52316	-340.52292	1386.97034	563.22821	-612.68359	1009.95544	600.68207	-127.37024	1002.47559	346.78775	-666.45453	846.71265	480.02008	-163.73785	909.39600	137.84877	-507.26004	847.79803	514.67157				-283.38947	944.41077	598.00885	-385.60162	443.40283	631.86456	-384.65500	449.54636	320.48886	-269.59357	139.43410	708.11755	-472.62057	131.45876	268.54257	
279	2.780	-414.81564	1451.17310	270.31210	-379.40652	1621.07544	519.78900	-500.91785	1549.78052	434.90347	-296.65912	1506.00024	350.90054	-534.14111	1336.03162	585.68329	-215.84366	1330.18420	433.28857	-439.25037	1214.82031	401.66852	-345.68268	1385.20374	556.15747	-617.62097	1008.55713	593.45923	-131.93311	1001.00195	339.86017	-669.89734	843.68298	472.58673	-165.93640	908.10846	130.14612	-512.88715	845.97217	506.95129				-289.13153	943.32056	589.42407	-390.58051	442.42133	626.05396	-391.43628	448.06454	314.25464	-271.13025	140.18440	707.32941	-478.16312	127.75844	267.29861	
